<?xml version="1.0" encoding="iso-8859-1"?>
<!-- Generator: Adobe Illustrator 19.0.0, SVG Export Plug-In . SVG Version: 6.00 Build 0)  -->
<svg version="1.1" id="Layer_1" xmlns="http://www.w3.org/2000/svg" xmlns:xlink="http://www.w3.org/1999/xlink" x="0px" y="0px"
	 viewBox="0 0 301.111 301.111" style="enable-background:new 0 0 301.111 301.111;" xml:space="preserve">
<g id="XMLID_1445_">
	<g>
		<g>
			<path d="M174.071,171.001l-4.695-2.026l-26.787,77.339c10.031,27.987,10.283,27.901,10.714,32.421l36.757-106.126
				C184.872,173.699,179.309,173.26,174.071,171.001z"/>
			<path d="M300.536,282.853L229.957,79.075h0.295c2.169,0,3.928-1.759,3.928-3.928V63.655h14.865c2.169,0,3.928-1.758,3.928-3.928
				V40.598c0-2.169-1.758-3.928-3.928-3.928H234.18V25.178c0-2.169-1.758-3.928-3.928-3.928h-9.03V10.649
				c0-3.054-2.476-5.529-5.529-5.529c-3.054,0-5.529,2.476-5.529,5.529v10.602h-9.03c-2.169,0-3.928,1.759-3.928,3.928v49.969
				c0,1.964,1.443,3.586,3.325,3.877l-13.689,39.524l8.312,3.586c13.419,5.79,19.74,21.419,13.892,34.975
				c-1.079,2.501-2.498,4.751-4.177,6.723v74.1c0,5.726,4.642,10.367,10.367,10.367s10.367-4.642,10.367-10.367V129.858
				l55.341,159.781c1.874,5.41,7.778,8.278,13.189,6.403C299.544,294.169,302.411,288.264,300.536,282.853z"/>
			<circle cx="125.521" cy="33.676" r="29.468"/>
			<path d="M189.9,134.309l-48.824-21.065L97.142,76.37l25.743,13.347c-0.314-6.102-3.421-11.981-8.912-15.606L84.348,54.553
				c-9.175-6.057-21.523-3.53-27.58,5.645c-1.818,2.754-43.782,61.754-55.618,85.168c-1.816,3.592-1.395,8.323,0.656,12.151
				l27.486,51.3l-16.299,68.951c-2.309,9.765,5.108,19.135,15.148,19.133c7.046-0.001,13.43-4.822,15.121-11.977l17.655-74.682
				c0.888-3.759,0.279-7.738-1.426-10.922L47.103,176.2c6.33,4.179,0.236-0.995,35.62,31.111l28.415,79.282
				c2.899,8.087,11.802,12.291,19.886,9.392c8.085-2.897,12.291-11.801,9.392-19.886l-29.728-82.942
				c-0.861-2.402-2.299-4.555-4.189-6.27l-26.97-24.472c2.777-4.206,20.647-31.275,23.442-35.508L79.977,96.824l45.431,38.13
				c0.993,0.834,2.103,1.519,3.294,2.032l50.62,21.84c6.776,2.922,14.628-0.203,17.547-6.97
				C199.791,145.086,196.67,137.23,189.9,134.309z"/>
		</g>
	</g>
</g>
<g>
</g>
<g>
</g>
<g>
</g>
<g>
</g>
<g>
</g>
<g>
</g>
<g>
</g>
<g>
</g>
<g>
</g>
<g>
</g>
<g>
</g>
<g>
</g>
<g>
</g>
<g>
</g>
<g>
</g>
</svg>
